<svg width="129" height="129" viewBox="0 0 129 129" fill="none" xmlns="http://www.w3.org/2000/svg">
<g id="Group 9">
<circle id="Oval" cx="64.5" cy="64.5" r="64.5" fill="white"/>
<g id="Icon">
<path id="Shape" fill-rule="evenodd" clip-rule="evenodd" d="M81.9013 48.375H47.0984C44.2444 48.375 41.9248 50.6946 41.9248 53.5486V77.0639C41.9248 79.9179 44.2444 82.2375 47.0984 82.2375H81.9013C84.7552 82.2375 87.0748 79.9179 87.0748 77.0639V53.5486C87.0748 50.6946 84.7552 48.375 81.9013 48.375ZM64.5 54.0188C67.6116 54.0188 70.1438 56.5509 70.1438 59.6625C70.1438 62.7741 67.6116 65.3063 64.5 65.3063C61.3884 65.3063 58.8563 62.7741 58.8563 59.6625C58.8563 56.5509 61.3884 54.0188 64.5 54.0188ZM72.4961 76.5936C73.2749 76.5936 73.907 75.9615 73.907 75.1827V72.3608C73.907 69.5069 71.5874 67.1872 68.7335 67.1872H60.2678C57.4139 67.1872 55.0943 69.5069 55.0943 72.3608V75.1827C55.0943 75.9615 55.7264 76.5936 56.5052 76.5936H72.4961Z" fill="#B3C0CD"/>
</g>
</g>
</svg>
